<?xml version="1.0" encoding="UTF-8"?>
<svg version="1.1" xmlns="http://www.w3.org/2000/svg" width="2000" height="2000">
<path d="M0 0 C660 0 1320 0 2000 0 C2000 660 2000 1320 2000 2000 C1340 2000 680 2000 0 2000 C0 1340 0 680 0 0 Z " fill="#231E1B" transform="translate(0,0)"/>
<path d="M0 0 C660 0 1320 0 2000 0 C2000 660 2000 1320 2000 2000 C1340 2000 680 2000 0 2000 C0 1340 0 680 0 0 Z M67.4921875 73.6953125 C62.39849996 79.75593734 57.96541767 86.15231116 54 93 C53.401875 94.02351563 52.80375 95.04703125 52.1875 96.1015625 C42.08316972 114.69875659 41.25535522 133.74511954 41.36552791 154.52968163 C41.37949813 158.237119 41.36397827 161.94446484 41.35247365 165.65189475 C41.33625553 172.15732429 41.33841406 178.66254192 41.35286897 185.16797265 C41.37441317 194.90673862 41.36687363 204.64533857 41.35387182 214.38411204 C41.33255009 230.98572373 41.33485232 247.58725642 41.35013962 264.18887138 C41.36553825 281.00592176 41.37002919 297.82292267 41.36128807 314.63997841 C41.36074269 315.70329133 41.36019731 316.76660425 41.3596354 317.86213878 C41.35737734 322.19304175 41.35504077 326.52394467 41.35260493 330.85484754 C41.329941 371.16739064 41.33173659 411.47989792 41.34908867 451.79244232 C41.36579034 490.63900925 41.37388837 529.48555985 41.3698597 568.33213043 C41.36961933 570.77200755 41.36938014 573.21188466 41.36914212 575.65176177 C41.36817334 585.45661868 41.36715092 595.26147558 41.36605701 605.06633248 C41.36302843 632.4744241 41.36170529 659.88251567 41.36168766 687.29060745 C41.36168639 688.53868348 41.36168513 689.78675951 41.36168382 691.07265602 C41.36176393 730.83939815 41.36931514 770.60613522 41.38209438 810.37287521 C41.38250807 811.662609 41.38292176 812.95234278 41.38334798 814.28115941 C41.39009153 835.22553266 41.39724523 856.16990576 41.40442721 877.11427886 C41.43288823 960.19191771 41.43885138 1043.26952572 41.42358398 1126.34716797 C41.42262456 1131.59767945 41.42166754 1136.84819092 41.42071127 1142.0987024 C41.4204748 1143.39687395 41.42023834 1144.69504549 41.4199947 1146.03255557 C41.41738189 1160.40933671 41.41484932 1174.78611785 41.4124136 1189.16289902 C41.41219378 1190.45215502 41.41197397 1191.74141103 41.41174749 1193.06973539 C41.40502526 1232.79867934 41.40330486 1272.52762075 41.40717411 1312.25656509 C41.40729557 1313.50367037 41.40741702 1314.75077564 41.40754216 1316.03567198 C41.41027021 1343.41086978 41.41433321 1370.78606727 41.41958781 1398.16126469 C41.42146619 1407.95608676 41.42329263 1417.75090885 41.42511335 1427.54573093 C41.4257976 1431.19879293 41.42649914 1434.85185492 41.42720087 1438.50491691 C41.43225608 1465.22663303 41.43457913 1491.94834575 41.42976642 1518.67006207 C41.42954974 1519.87432555 41.42933306 1521.07858904 41.42910981 1522.31934536 C41.42800098 1528.38268623 41.426842 1534.44602708 41.42566141 1540.50936793 C41.41713628 1584.31976793 41.42131749 1628.13013402 41.4484285 1671.94052759 C41.45104317 1676.25556031 41.45359661 1680.57059306 41.45610237 1684.88562584 C41.45672352 1685.94461282 41.45734468 1687.00359981 41.45798465 1688.09467731 C41.46746913 1704.86874486 41.46358181 1721.64278149 41.45415952 1738.41684795 C41.44518363 1754.90701713 41.45049534 1771.39713041 41.47105191 1787.88728978 C41.4826837 1797.5566386 41.48341939 1807.22583945 41.46802912 1816.89518386 C41.4589008 1823.31845471 41.46429473 1829.74160798 41.48144746 1836.16486213 C41.49076496 1839.80501634 41.49398906 1843.44487433 41.47929904 1847.08501758 C41.42614163 1861.25701827 41.39228149 1874.47460398 46 1888 C46.46634674 1889.49821571 46.46634674 1889.49821571 46.94211462 1891.0266984 C51.05046648 1903.92204899 58.14133778 1914.90911785 67 1925 C67.64324219 1925.8353125 68.28648438 1926.670625 68.94921875 1927.53125 C83.59892997 1945.16671189 107.82899116 1955.11746677 130 1958 C134.21030834 1958.25752713 138.4040898 1958.26949778 142.6213395 1958.251849 C143.84217372 1958.25477786 145.06300795 1958.25770673 146.32083715 1958.26072434 C149.69470346 1958.26680855 153.06834548 1958.26401153 156.44219625 1958.25738853 C160.13194982 1958.25237897 163.82168617 1958.25905243 167.51143703 1958.26419219 C173.9981348 1958.27162649 180.48479973 1958.27164059 186.97149947 1958.26680271 C196.68240896 1958.25959592 206.39329016 1958.26392741 216.1041989 1958.27048406 C232.65530783 1958.28131786 249.20640538 1958.28264031 265.75751686 1958.27878571 C282.53115252 1958.27491047 299.3047797 1958.27536287 316.07841492 1958.2810955 C317.13773818 1958.28145433 318.19706144 1958.28181316 319.2884854 1958.28218286 C323.60293249 1958.28365776 327.91737958 1958.28516215 332.23182665 1958.28670432 C376.03780445 1958.30234391 419.84377643 1958.30501777 463.64975653 1958.30254826 C469.70369846 1958.30220982 475.75764039 1958.30188772 481.81158233 1958.30158257 C483.01402484 1958.30152153 484.21646736 1958.30146049 485.45534753 1958.30139759 C512.09686334 1958.30012599 538.73837836 1958.30272655 565.37989394 1958.30610864 C571.46212733 1958.30687938 577.54436073 1958.30762411 583.62659413 1958.30837366 C586.0676204 1958.30867535 588.50864667 1958.30897723 590.94967294 1958.3092793 C592.15964137 1958.30942898 593.36960979 1958.30957866 594.61624392 1958.30973287 C597.06365976 1958.3100364 599.51107561 1958.31034109 601.95849145 1958.31064692 C671.41136217 1958.31932113 740.86423219 1958.32396301 810.31710339 1958.31969929 C811.60338908 1958.31962123 812.88967477 1958.31954317 814.21493881 1958.31946275 C828.55860101 1958.31858994 842.9022632 1958.31766068 857.24592539 1958.31671212 C858.54096269 1958.31662661 859.83599998 1958.3165411 861.17028083 1958.316453 C869.02613991 1958.31593421 869.02613991 1958.31593421 876.88199899 1958.31541077 C959.71992103 1958.30987479 1042.55783193 1958.31741724 1125.39575195 1958.33618164 C1146.26822755 1958.3409038 1167.14070316 1958.34558428 1188.01317883 1958.3500185 C1189.29835371 1958.35029182 1190.58352859 1958.35056515 1191.90764816 1958.35084675 C1231.51274656 1958.35921706 1271.11784403 1958.36389762 1310.72294331 1958.36472607 C1311.9662364 1958.36475243 1313.20952949 1958.3647788 1314.49049813 1958.36480596 C1341.78269724 1958.36534673 1369.07489629 1958.36497433 1396.36709538 1958.36376625 C1406.13252186 1958.36334062 1415.89794835 1958.3629755 1425.66337483 1958.36263681 C1428.09279237 1958.36255151 1430.5222099 1958.36246257 1432.95162743 1958.36236999 C1471.67280949 1958.36092083 1510.39398397 1958.36804997 1549.11516421 1958.37937395 C1589.19474792 1958.3910193 1629.27431811 1958.39159282 1669.35390189 1958.37953053 C1673.65746117 1958.37827868 1677.96102046 1958.3770752 1682.26457977 1958.37590981 C1683.32075278 1958.37561951 1684.37692578 1958.37532922 1685.46510403 1958.37503013 C1702.19180039 1958.37070395 1718.91847754 1958.37643692 1735.64517088 1958.38635 C1752.09077349 1958.3958849 1768.53634645 1958.39471523 1784.98194733 1958.38214377 C1794.62416313 1958.37509218 1804.2662937 1958.37622486 1813.90850342 1958.38949216 C1820.31514722 1958.39748591 1826.72172659 1958.39456733 1833.12836447 1958.38284252 C1836.75823417 1958.37650248 1840.38793569 1958.37471724 1844.01779592 1958.38640973 C1875.00299209 1958.47926668 1902.43771515 1954.4705893 1925.6328125 1932.359375 C1926.41398437 1931.58078125 1927.19515625 1930.8021875 1928 1930 C1928.83917969 1929.17242188 1929.67835937 1928.34484375 1930.54296875 1927.4921875 C1949.32129448 1908.44517348 1958.1749413 1884.46222687 1958.12995183 1857.9763062 C1958.1328007 1856.15084664 1958.1328007 1856.15084664 1958.13570711 1854.28850911 C1958.13997604 1850.9022068 1958.13976845 1847.5159579 1958.13769349 1844.12965704 C1958.13653136 1840.43501916 1958.14116343 1836.74038774 1958.14505023 1833.04575235 C1958.15108531 1826.54265174 1958.15338621 1820.03955799 1958.15327708 1813.53645471 C1958.15312659 1803.80087466 1958.15867507 1794.06530358 1958.16532399 1784.3297261 C1958.17647624 1767.73845985 1958.18280111 1751.14719482 1958.18649673 1734.55592537 C1958.19024994 1717.73665025 1958.19612184 1700.91737792 1958.20457458 1684.09810448 C1958.20510568 1683.03668588 1958.20563677 1681.97526728 1958.20618396 1680.88168447 C1958.20835065 1676.55883099 1958.21052727 1672.23597752 1958.2127179 1667.91312405 C1958.2392292 1615.48962465 1958.2547864 1563.06612377 1958.26788078 1510.64261954 C1958.27213018 1493.64407654 1958.2766978 1476.64553364 1958.2814641 1459.64699078 C1958.30637144 1370.61090105 1958.32843532 1281.57481102 1958.34065448 1192.53871856 C1958.34155186 1186.02048705 1958.34246656 1179.50225554 1958.34338222 1172.98402403 C1958.34356383 1171.6910068 1958.34374544 1170.39798956 1958.34393256 1169.06578998 C1958.34577524 1155.96558997 1958.3476411 1142.86538996 1958.34953065 1129.76518996 C1958.3499087 1127.13855049 1958.35028499 1124.51191102 1958.35065953 1121.88527155 C1958.36269001 1037.5241778 1958.39237919 953.16310467 1958.43407464 868.80202063 C1958.4640226 808.191159 1958.49165184 747.5803016 1958.50135231 686.96943283 C1958.50155287 685.72304748 1958.50175342 684.47666213 1958.50196006 683.19250752 C1958.50631058 655.83164002 1958.50925637 628.47077255 1958.51088657 601.10990476 C1958.51156293 590.10104846 1958.51241844 579.09219217 1958.51332474 568.08333588 C1958.51341883 566.87847978 1958.51351293 565.67362369 1958.51360988 564.43225681 C1958.51672251 525.61522204 1958.53523386 486.79821352 1958.56167471 447.98118822 C1958.58821897 408.88351492 1958.59896762 369.78587091 1958.58793872 330.68818919 C1958.58641719 325.28502891 1958.58507176 319.88186861 1958.58383179 314.47870827 C1958.58358206 313.41954289 1958.58333233 312.36037751 1958.58307503 311.26911621 C1958.57958054 294.50040702 1958.59288892 277.73175497 1958.61320952 260.9630595 C1958.63284477 244.47270119 1958.63463843 227.98242087 1958.61748323 211.49205893 C1958.60796233 201.82560682 1958.61208202 192.15939485 1958.63650558 182.49296757 C1958.65136896 176.06768181 1958.64798836 169.64257022 1958.62997501 163.21729301 C1958.62027835 159.57835722 1958.61811654 155.93988968 1958.63852822 152.30098758 C1958.7393842 133.09655062 1957.55354561 115.58282738 1948.8125 98.125 C1948.43520752 97.34817871 1948.05791504 96.57135742 1947.66918945 95.77099609 C1943.97244576 88.44107606 1939.30231004 82.24555345 1934 76 C1932.97132813 74.68902344 1932.97132813 74.68902344 1931.921875 73.3515625 C1916.81368885 54.86552985 1892.01659976 44.80733611 1869 42 C1864.74914844 41.74730686 1860.51540276 41.72958978 1856.25791401 41.74700034 C1855.03617439 41.74394724 1853.81443477 41.74089415 1852.55567274 41.73774853 C1849.18392911 41.73132719 1845.81240923 41.73376296 1842.44067993 41.74004027 C1838.75148667 41.74467246 1835.0623117 41.73761832 1831.37312219 41.73210663 C1824.8889564 41.72401854 1818.40482269 41.72333866 1811.92065369 41.72751851 C1802.21350393 41.73374159 1792.50638352 41.72843604 1782.79923588 41.7209211 C1766.25403924 41.70845549 1749.70885306 41.7055086 1733.16365242 41.70775604 C1716.39688405 41.7100049 1699.63012456 41.70793695 1682.86335754 41.70061111 C1681.80430703 41.70015181 1680.74525652 41.6996925 1679.65411357 41.69921928 C1675.34074427 41.697336 1671.02737498 41.69542462 1666.71400571 41.6934769 C1621.71503747 41.67318711 1576.71607421 41.66706489 1531.71710192 41.66589268 C1526.87334076 41.66576318 1522.0295796 41.6656273 1517.18581843 41.66548586 C1515.98383418 41.66545185 1514.78184992 41.66541784 1513.54344189 41.6653828 C1486.90938714 41.66456594 1460.27533334 41.66018628 1433.64127909 41.65517417 C1422.67483515 41.65311746 1411.70839119 41.6511374 1400.74194723 41.64914167 C1399.53025498 41.64892049 1398.31856272 41.64869931 1397.07015252 41.64847143 C1327.63216912 41.63582288 1258.19418635 41.62757324 1188.75620174 41.62848854 C1186.15748314 41.6285201 1183.55876454 41.62855157 1180.96004594 41.62858296 C1169.2269964 41.62872973 1157.49394687 41.62890606 1145.76089733 41.62909073 C1140.52881149 41.62917297 1135.29672565 41.62925327 1130.0646398 41.62933335 C1127.44588638 41.62937414 1124.82713295 41.62941618 1122.20837952 41.62945947 C1039.3974573 41.63082001 956.58655219 41.61618461 873.77563477 41.58837891 C852.91089095 41.5813769 832.04614711 41.57443799 811.18140316 41.56785011 C809.89668753 41.56744436 808.61197191 41.56703862 807.28832551 41.56662057 C767.69382474 41.55419111 728.09932537 41.54665956 688.50482273 41.54413414 C686.64022468 41.54401429 686.64022468 41.54401429 684.73795798 41.54389201 C657.44998061 41.54218548 630.16200333 41.54166307 602.87402592 41.54223277 C593.10994565 41.54242574 583.34586538 41.54252982 573.5817851 41.54259023 C571.1527204 41.54260605 568.7236557 41.54262646 566.29459099 41.54265147 C527.5875273 41.54300414 488.88047825 41.53160732 450.17341875 41.51434384 C411.18897104 41.49704502 372.20454361 41.49266057 333.22009368 41.50586648 C327.83221245 41.50769106 322.44433119 41.50937762 317.05644989 41.51098251 C316.00028757 41.51130269 314.94412525 41.51162286 313.85595801 41.51195274 C297.13785762 41.51665733 280.4197923 41.50794688 263.7016985 41.49364014 C247.25952268 41.4798506 230.81739863 41.48035582 214.37522394 41.49602441 C204.73833656 41.50478196 195.10160172 41.50265661 185.464727 41.48429084 C179.05780034 41.47317905 172.65098709 41.47667747 166.24406909 41.49185641 C162.61645932 41.50004793 158.98914888 41.50224423 155.36155782 41.48635503 C121.00170707 41.34613744 91.90354177 47.45881025 67.4921875 73.6953125 Z " fill="#3C342F" transform="translate(0,0)"/>
<path d="M0 0 C-1.19254192 6.49744368 -2.71288423 12.76144203 -4.6875 19.0625 C-7.04597127 26.73810611 -9.24807935 34.44473606 -11.375 42.1875 C-13.72277731 50.69370292 -16.26645409 59.11007128 -19 67.5 C-23.02814062 79.90798276 -26.62677468 92.39899061 -30 105 C-30.17015625 105.6333728 -30.3403125 106.26674561 -30.515625 106.91931152 C-36.14783879 127.90264815 -41.09613217 148.97620753 -45.56262207 170.23684692 C-46.65130655 175.40296421 -47.78570456 180.55728332 -48.94921875 185.70703125 C-56.17314043 215.51686668 -56.17314043 215.51686668 -57 246 C-56.34 246.99 -55.68 247.98 -55 249 C-43.18532644 250.96911226 -32.67406501 242.71632124 -23.4375 236.25 C-15.35241206 230.46946752 -7.83983871 224.13027635 -0.37646484 217.57373047 C3.77468607 214 3.77468607 214 6 214 C7.60178593 215.78104718 9.13381926 217.62537278 10.625 219.5 C11.44226563 220.5209375 12.25953125 221.541875 13.1015625 222.59375 C13.72804688 223.3878125 14.35453125 224.181875 15 225 C13.4277813 229.04420112 10.54838437 231.5059499 7.375 234.3125 C6.83085449 234.80177979 6.28670898 235.29105957 5.72607422 235.79516602 C4.15635154 237.2032654 2.57951234 238.6029013 1 240 C0.31421875 240.61101562 -0.3715625 241.22203125 -1.078125 241.8515625 C-3.03949273 243.58268272 -5.01862822 245.29180164 -7 247 C-8.04823962 247.91399078 -9.09641053 248.82806037 -10.14453125 249.7421875 C-30.73084157 267.63126042 -52.69419728 282.80638932 -79 291 C-80.17755859 291.36931641 -80.17755859 291.36931641 -81.37890625 291.74609375 C-88.86480197 293.74508985 -98.0664321 294.63430381 -105.28125 291.63671875 C-109.34495149 289.19032375 -111.50542691 286.48371926 -113 282 C-114.49057851 272.18859717 -110.83658966 263.46644116 -107.76074219 254.34082031 C-106.66347089 250.96449258 -105.7645615 247.56226562 -104.875 244.125 C-103.1201931 237.34908597 -101.11505771 230.67143202 -99 224 C-99.33 223.67 -99.66 223.34 -100 223 C-101.0421557 224.18707084 -102.08369093 225.37468641 -103.125 226.5625 C-103.76824219 227.2946875 -104.41148437 228.026875 -105.07421875 228.78125 C-106.23808713 230.12217746 -107.39027496 231.47354699 -108.51953125 232.84375 C-111.65701787 236.64676408 -115.00611809 239.88711797 -118.765625 243.07421875 C-121.22267849 245.19192394 -123.57157933 247.40605319 -125.9375 249.625 C-142.75423449 264.91294045 -162.0846473 278.94083262 -183 288 C-184.03898438 288.45375 -185.07796875 288.9075 -186.1484375 289.375 C-192.98448567 291.90556796 -199.53192363 292.36699991 -206.75 292.4375 C-207.62551514 292.4478125 -208.50103027 292.458125 -209.40307617 292.46875 C-219.73607733 292.32801869 -227.56285268 289.21920893 -235 282 C-246.97339568 268.10316726 -250.57557331 250.50687524 -250.3125 232.625 C-250.29977051 231.34351074 -250.28704102 230.06202148 -250.27392578 228.74169922 C-249.30546539 165.87181153 -211.1710715 105.47761068 -167.58984375 62.43359375 C-163.25935139 58.3643679 -158.66949917 54.67023892 -154 51 C-152.48599609 49.77796875 -152.48599609 49.77796875 -150.94140625 48.53125 C-130.30930381 32.04979611 -107.21835177 20.84418574 -81 17 C-80.33516602 16.90138672 -79.67033203 16.80277344 -78.98535156 16.70117188 C-70.63120034 15.67015628 -62.20551021 15.84950435 -53.80273438 15.86962891 C-51.1106209 15.87502884 -48.41867117 15.86963748 -45.7265625 15.86328125 C-44.00781213 15.86394138 -42.28906187 15.86522118 -40.5703125 15.8671875 C-39.76925079 15.86516327 -38.96818909 15.86313904 -38.14285278 15.86105347 C-34.59171033 15.8760138 -31.4166089 16.04386675 -28 17 C-27.6596875 16.01 -27.6596875 16.01 -27.3125 15 C-26.879375 14.01 -26.44625 13.02 -26 12 C-25.72800781 11.33742188 -25.45601562 10.67484375 -25.17578125 9.9921875 C-23.38689657 6.38781762 -22.04160215 4.43350771 -18.25 2.85546875 C-15.17339987 2.07478147 -12.13666095 1.4812866 -9 1 C-7.87851562 0.80664062 -7.87851562 0.80664062 -6.734375 0.609375 C-4.48008105 0.24944571 -2.28441279 0 0 0 Z " fill="#FDFDFD" transform="translate(940,878)"/>
<path d="M0 0 C0.87149689 0.00021149 1.74299377 0.00042297 2.64089966 0.00064087 C15.50788519 0.03187896 27.74129495 0.59469819 40.125 4.375 C41.17768066 4.68864502 42.23036133 5.00229004 43.31494141 5.32543945 C56.20558442 9.25404034 68.9038791 13.74703894 81.625 18.1875 C83.91267994 18.98395514 86.2004398 19.78018077 88.48828125 20.57617188 C94.03477714 22.50647289 99.58028416 24.43959216 105.125 26.375 C104.9220784 27.05087662 104.7191568 27.72675323 104.51008606 28.42311096 C104.24225815 29.31545944 103.97443024 30.20780792 103.69848633 31.12719727 C103.30129143 32.45038719 103.30129143 32.45038719 102.89607239 33.80030823 C92.21318832 69.47158131 87.06642427 105.36207797 84.125 142.375 C78.185 142.375 72.245 142.375 66.125 142.375 C66.29 139.9825 66.455 137.59 66.625 135.125 C67.15115686 125.95919491 67.26649328 116.79004496 67.30224609 107.6114502 C67.30897469 106.06187033 67.31911437 104.51230074 67.33300781 102.96276855 C67.4486012 88.92805854 67.24848295 74.34608226 62.4375 61 C62.04667236 59.88069092 62.04667236 59.88069092 61.64794922 58.73876953 C55.34239932 41.48167181 43.89742676 32.17649722 27.90234375 24.27734375 C7.15996349 15.51357799 -18.5308676 20.06150183 -38.72802734 27.8737793 C-58.28383935 35.85488111 -75.12117022 47.46583131 -90.875 61.375 C-91.71933594 62.096875 -92.56367188 62.81875 -93.43359375 63.5625 C-142.89868636 106.27097793 -167.88964437 180.74831476 -177.625 243 C-177.74077393 243.73210693 -177.85654785 244.46421387 -177.97583008 245.21850586 C-179.90323414 258.39960453 -180.08148545 271.70596783 -180.0625 285 C-180.06189575 285.78769775 -180.0612915 286.57539551 -180.06066895 287.38696289 C-180.03490748 299.80147578 -179.7401382 312.0784286 -177.875 324.375 C-177.75141113 325.19242676 -177.62782227 326.00985352 -177.50048828 326.85205078 C-172.6987707 356.97191559 -159.77915326 389.59063062 -134.72119141 408.46582031 C-114.01644101 423.37233374 -90.99098493 428.04594255 -65.9375 424.18359375 C-46.38608088 420.62406314 -28.73235663 410.19390395 -13.875 397.375 C-13.35599121 396.93430176 -12.83698242 396.49360352 -12.30224609 396.03955078 C-0.59318332 386.03025053 9.01436322 374.30430967 17.94140625 361.79223633 C25.13429162 351.88313006 25.13429162 351.88313006 30.5390625 350.96484375 C34.09495285 351.52398552 36.61312379 352.05039558 39.6875 354 C41.6876669 357.30462357 41.39546704 359.54470944 41.125 363.375 C37.35899186 374.08177399 30.4095381 382.84585411 23.125 391.375 C22.37089844 392.25929688 21.61679687 393.14359375 20.83984375 394.0546875 C-6.60808224 425.23871956 -43.9353578 449.43365777 -85.875 454.375 C-90.2548699 454.65211182 -94.61216607 454.70989997 -99 454.6875 C-100.17433594 454.68186035 -101.34867188 454.6762207 -102.55859375 454.67041016 C-137.51665196 454.18806536 -168.10310935 440.5839402 -193.875 417.375 C-194.87273437 416.48554687 -194.87273437 416.48554687 -195.890625 415.578125 C-209.87638711 402.37661123 -219.25865733 384.78663902 -226.875 367.375 C-227.25269531 366.55128906 -227.63039062 365.72757813 -228.01953125 364.87890625 C-234.53329899 349.90502582 -237.0015729 333.47157631 -238.875 317.375 C-238.97143799 316.61727295 -239.06787598 315.8595459 -239.16723633 315.07885742 C-240.06916611 307.34057295 -240.07352329 299.5922706 -240.0625 291.8125 C-240.06222809 291.09145081 -240.06195618 290.37040161 -240.06167603 289.62750244 C-240.02954975 270.99066231 -239.14148992 252.5720756 -234.875 234.375 C-234.58095882 232.96300022 -234.29078503 231.55019112 -234.00390625 230.13671875 C-223.89482918 181.10742709 -200.20146806 133.19728961 -168.875 94.375 C-168.07578125 93.364375 -167.2765625 92.35375 -166.453125 91.3125 C-144.47450882 63.87819895 -118.25301322 41.98884334 -87.875 24.375 C-87.25625 24.01067871 -86.6375 23.64635742 -86 23.27099609 C-69.02484717 13.35486378 -50.46125038 6.73299723 -31.22460938 2.86230469 C-29.71306226 2.54881258 -28.20769154 2.20289831 -26.71289062 1.81738281 C-17.94551688 -0.30448806 -8.9650729 -0.01993199 0 0 Z " fill="#FDFDFD" transform="translate(437.875,770.625)"/>
<path d="M0 0 C0.91265625 0.23332031 1.8253125 0.46664062 2.765625 0.70703125 C13.12134173 3.87449209 20.65000827 10.89201228 25.81640625 20.33203125 C29.34266621 28.28066345 30.66376339 36.35831129 30 45 C29.95625244 45.65202393 29.91250488 46.30404785 29.86743164 46.97583008 C29.37170309 52.77743282 27.98272289 57.87404098 25.9375 63.3125 C25.62731934 64.14064209 25.31713867 64.96878418 24.99755859 65.82202148 C8.50403045 108.08514341 -42.14953112 129.72610573 -80.3125 147.75 C-81.05728607 148.10199463 -81.80207214 148.45398926 -82.56942749 148.81665039 C-91.00383929 152.79552154 -99.47200161 156.69756939 -107.98046875 160.515625 C-108.75385086 160.86534363 -109.52723297 161.21506226 -110.3240509 161.57537842 C-115.76556599 164 -115.76556599 164 -118 164 C-122.92101801 198.23425938 -122.92101801 198.23425938 -113 230 C-107.56060281 235.70473364 -102.37173347 238.17271652 -94.34423828 238.48291016 C-62.5747634 238.74216211 -33.78753351 214.9112925 -9.53100586 196.98510742 C-8.85561768 196.4872876 -8.18022949 195.98946777 -7.484375 195.4765625 C-6.90397461 195.04424316 -6.32357422 194.61192383 -5.72558594 194.16650391 C-3.88645243 192.92324133 -2.0039512 191.95036699 0 191 C1.4874965 192.74292519 2.96472492 194.49461754 4.4375 196.25 C5.67306641 197.71179687 5.67306641 197.71179687 6.93359375 199.203125 C8.82416941 201.76201379 9.39265363 203.01084829 10 206 C-5.04673754 220.27510997 -5.04673754 220.27510997 -13.109375 226.6875 C-15.23537645 228.38830116 -17.31898932 230.11052992 -19.390625 231.875 C-47.32856638 255.47456873 -83.32676675 279.1355314 -121 281 C-122.74603516 281.09667969 -122.74603516 281.09667969 -124.52734375 281.1953125 C-138.24098277 281.61298678 -148.77119995 278.37371108 -159 269 C-161.7241865 265.85553937 -163.92869675 262.60350018 -166 259 C-166.39832031 258.31550781 -166.79664063 257.63101562 -167.20703125 256.92578125 C-173.23517516 245.0726893 -174.20163839 229.39587052 -174.1875 216.25 C-174.18669434 215.44288574 -174.18588867 214.63577148 -174.18505859 213.80419922 C-174.00443743 195.3347996 -171.44728392 176.90515179 -167 159 C-166.83661133 158.31196289 -166.67322266 157.62392578 -166.50488281 156.91503906 C-154.13393074 104.9387469 -122.65416558 44.32727281 -76.08496094 14.78515625 C-53.58238824 1.02198037 -26.22425813 -6.87393433 0 0 Z " fill="#FDFDFD" transform="translate(1601,889)"/>
<path d="M0 0 C6.25479498 2.75162492 10.18612207 7.65387333 12.640625 13.953125 C13.40561695 16.4209596 14.06936046 18.86740103 14.640625 21.38671875 C14.82753906 22.12148438 15.01445313 22.85625 15.20703125 23.61328125 C16.37298477 31.07118214 15.75981911 38.86066248 15.640625 46.38671875 C15.63337402 47.13679199 15.62612305 47.88686523 15.61865234 48.65966797 C15.06692007 89.44109954 -1.58716966 129.1277362 -24.359375 162.38671875 C-24.78283203 163.01288086 -25.20628906 163.63904297 -25.64257812 164.28417969 C-34.92779427 177.94713245 -45.56883512 190.66133586 -56.63671875 202.90625 C-57.82974609 204.22689453 -57.82974609 204.22689453 -59.046875 205.57421875 C-59.77261719 206.37214844 -60.49835938 207.17007812 -61.24609375 207.9921875 C-62.68317446 209.62052479 -64.07171874 211.29272248 -65.4140625 213 C-67.11499968 215.0868928 -68.72632722 216.68969963 -70.796875 218.38671875 C-74.63553929 221.65457794 -78.14612627 225.16627078 -81.671875 228.76171875 C-87.24889871 234.41516208 -93.12180678 239.46617373 -99.359375 244.38671875 C-101.11066754 245.84349963 -102.86064415 247.30186379 -104.609375 248.76171875 C-123.79324656 264.40103858 -144.7103044 277.4573833 -166.359375 289.38671875 C-167.61016846 290.07701172 -167.61016846 290.07701172 -168.88623047 290.78125 C-171.24671671 292.07702018 -173.61335102 293.36034869 -175.984375 294.63671875 C-177.04144653 295.21147949 -177.04144653 295.21147949 -178.11987305 295.79785156 C-183.00463112 298.38671875 -183.00463112 298.38671875 -186.359375 298.38671875 C-192.28034472 268.43533511 -197.99675103 238.44332172 -203.359375 208.38671875 C-203.51937988 207.4939624 -203.67938477 206.60120605 -203.84423828 205.68139648 C-212.33252911 158.09986196 -210.56937855 112.04395719 -182.30859375 70.8125 C-172.34591475 56.914724 -160.26952935 43.41649907 -146.359375 33.38671875 C-174.73069225 32.44333751 -215.86434491 33.20751127 -238.43359375 53.2265625 C-242.21504102 57.53688351 -243.25367341 61.50876712 -242.96875 67.19140625 C-242.07081845 71.89979094 -240.30247337 76.1698278 -238.51708984 80.60327148 C-236.13879192 86.61383968 -235.01941792 91.00777403 -236.95703125 97.33984375 C-239.05158372 101.9770855 -242.2489596 104.01509567 -246.92578125 105.7890625 C-251.73756361 106.97076828 -255.86626198 106.58164274 -260.33984375 104.4375 C-264.88069205 101.52322423 -267.03793129 98.20156496 -269.359375 93.38671875 C-269.71773437 92.67902344 -270.07609375 91.97132813 -270.4453125 91.2421875 C-271.73589158 87.2105067 -271.70024209 83.40823761 -271.671875 79.19921875 C-271.66696045 78.34859863 -271.6620459 77.49797852 -271.65698242 76.62158203 C-271.3793151 61.74146133 -264.61390738 50.32438485 -254.66015625 39.546875 C-238.06880254 23.67531972 -213.04559858 19.12481324 -191.359375 15.38671875 C-190.62928223 15.2578125 -189.89918945 15.12890625 -189.14697266 14.99609375 C-179.74246416 13.39248306 -170.31364317 13.13741217 -160.796875 12.82421875 C-158.88213379 12.76004761 -158.88213379 12.76004761 -156.92871094 12.69458008 C-146.72765146 12.36809849 -146.72765146 12.36809849 -141.89453125 12.38671875 C-133.04435216 12.2302515 -125.8180219 9.64414561 -117.76367188 6.18139648 C-112.31175654 3.87870153 -108.29062827 2.80979903 -102.359375 3.38671875 C-97.58272406 5.77504422 -94.64386385 8.54360238 -92.359375 13.38671875 C-92.03702938 17.83666077 -92.56307887 21.13539626 -94.97265625 24.921875 C-97.32927949 27.35563812 -99.57789477 28.742964 -102.58666992 30.26049805 C-111.60904529 34.86888781 -115.72275592 40.22035343 -120.19335938 49.11865234 C-121.46890175 51.59976388 -122.83347704 54.01601002 -124.21875 56.4375 C-134.28014557 74.14471936 -143.17179738 92.62668142 -148.359375 112.38671875 C-148.57432617 113.19850586 -148.78927734 114.01029297 -149.01074219 114.84667969 C-160.60653114 159.3275306 -154.242202 203.24626779 -144.67382812 247.4699707 C-144.359375 249.38671875 -144.359375 249.38671875 -144.359375 253.38671875 C-136.23452224 247.19943024 -128.20726337 240.92480655 -120.359375 234.38671875 C-119.84906738 233.96277832 -119.33875977 233.53883789 -118.81298828 233.10205078 C-111.30849408 226.85705211 -104.01870789 220.42248297 -96.86523438 213.77929688 C-95.31294103 212.34377787 -93.75170422 210.91861975 -92.1875 209.49609375 C-84.82862254 202.80196974 -77.69907918 196.06950309 -71.21484375 188.51171875 C-69.97442567 187.09111363 -68.70554182 185.69488725 -67.41015625 184.32421875 C-50.22156912 166.02361581 -36.92786301 144.06645106 -26.359375 121.38671875 C-25.56273437 119.70449219 -25.56273437 119.70449219 -24.75 117.98828125 C-21.65077318 111.13483638 -19.23635865 104.20102871 -17.046875 97.01171875 C-16.79212402 96.17930664 -16.53737305 95.34689453 -16.27490234 94.48925781 C-11.64010092 78.71134485 -11.70346422 63.48669545 -18.359375 48.38671875 C-18.96702237 46.97042783 -19.57375602 45.55374463 -20.1796875 44.13671875 C-21.36906089 41.37597214 -22.57831686 38.62555909 -23.80859375 35.8828125 C-24.32035156 34.72910156 -24.83210938 33.57539062 -25.359375 32.38671875 C-25.74996094 31.53851562 -26.14054687 30.6903125 -26.54296875 29.81640625 C-28.60575239 23.67740422 -28.46552344 15.88209382 -25.796875 9.94921875 C-19.99864505 0.14002686 -10.89975918 -2.83321555 0 0 Z " fill="#FDFDFD" transform="translate(1239.359375,883.61328125)"/>
<path d="M0 0 C0.82040771 -0.00926514 1.64081543 -0.01853027 2.48608398 -0.02807617 C10.5702476 0.01399018 19.30133165 1.16607799 25.29296875 7.08203125 C31.03146411 13.45945187 32.98157771 17.52456997 32.8125 26.2109375 C32.04739272 32.41149445 28.59131987 36.36398642 24.1875 40.5625 C17.08979169 46.07468885 9.16948673 46.7742847 0.4375 46.6875 C-0.6035791 46.68427734 -1.6446582 46.68105469 -2.71728516 46.67773438 C-10.28346278 46.54624724 -17.50252759 45.60341941 -24.9375 44.25 C-33.85808438 42.63025419 -42.4908942 41.83828992 -51.5625 41.8125 C-52.63032715 41.80283203 -53.6981543 41.79316406 -54.79833984 41.78320312 C-62.8965947 41.87059899 -70.97409331 42.87961423 -77.1640625 48.625 C-85.16755012 57.92514204 -89.03549625 70.01445993 -92.31640625 81.61328125 C-92.7044619 82.97980331 -92.7044619 82.97980331 -93.10035706 84.37393188 C-96.25347157 95.57577828 -99.13729071 106.8461173 -102 118.125 C-102.28352325 119.23807526 -102.56704651 120.35115051 -102.85916138 121.49795532 C-106.84812363 137.17305748 -110.61754364 152.87091112 -114.08984375 168.66796875 C-115.46371846 174.8933668 -116.98617111 181.07316429 -118.5625 187.25 C-120.89218888 196.38154145 -123.01284435 205.55225408 -125.0625 214.75 C-127.32674654 224.91071375 -129.71957361 235.02612278 -132.29296875 245.11328125 C-134.3625849 253.29319271 -136.22739588 261.51504531 -138.0625 269.75 C-140.11215753 278.94775433 -142.23309291 288.11838178 -144.5625 297.25 C-147.03164587 306.93652262 -149.26716321 316.66731749 -151.44287109 326.42337036 C-153.55085008 335.86970772 -155.75993497 345.28638039 -158.0625 354.6875 C-161.54402511 368.93554581 -164.70433014 383.24613411 -167.77294922 397.58789062 C-168.31103471 400.08364891 -168.85999049 402.57708249 -169.41845703 405.06835938 C-169.69028809 406.29232422 -169.96211914 407.51628906 -170.2421875 408.77734375 C-170.48694824 409.86394287 -170.73170898 410.95054199 -170.98388672 412.07006836 C-172.02090063 417.76926931 -172.98149063 424.19763887 -170.4765625 429.5859375 C-168.57196513 431.54563933 -168.57196513 431.54563933 -165.34375 431.7109375 C-161.07953433 431.19112609 -157.80519204 429.8618324 -154.0625 427.875 C-153.3718042 427.51776855 -152.6811084 427.16053711 -151.96948242 426.79248047 C-133.44209811 416.97952422 -116.44961893 403.40997728 -101.18359375 389.109375 C-100.63840088 388.59947021 -100.09320801 388.08956543 -99.53149414 387.56420898 C-98.49115003 386.58409616 -97.45742311 385.59689779 -96.43139648 384.60180664 C-92.88918118 381.25 -92.88918118 381.25 -89.5625 381.25 C-87.265625 383.078125 -87.265625 383.078125 -84.8125 385.5 C-83.99265625 386.28890625 -83.1728125 387.0778125 -82.328125 387.890625 C-80.5625 390.25 -80.5625 390.25 -80.7722168 392.18334961 C-81.67049642 394.53241881 -82.72010937 395.84884805 -84.44140625 397.67578125 C-85.02897705 398.30411865 -85.61654785 398.93245605 -86.22192383 399.57983398 C-86.84993896 400.23411377 -87.4779541 400.88839355 -88.125 401.5625 C-88.76397217 402.23676025 -89.40294434 402.91102051 -90.0612793 403.60571289 C-94.35486556 408.0966177 -98.78019982 412.28344399 -103.5625 416.25 C-104.93982399 417.49743882 -106.31465976 418.74762838 -107.6875 420 C-130.88048054 440.58080185 -163.58562012 467.22819314 -196 467.75 C-197.13659058 467.77791626 -197.13659058 467.77791626 -198.29614258 467.80639648 C-204.38327641 467.73681766 -207.87193753 465.76470871 -212.35546875 461.57421875 C-212.81566406 461.03410156 -213.27585937 460.49398438 -213.75 459.9375 C-214.21792969 459.40511719 -214.68585937 458.87273437 -215.16796875 458.32421875 C-219.52289049 451.84673012 -220.05086637 446.39089328 -219.9375 438.75 C-219.92662354 437.73591064 -219.91574707 436.72182129 -219.90454102 435.67700195 C-219.07147332 395.0201546 -206.36765061 353.79896107 -196.26971436 314.67019653 C-193.27554603 303.06732183 -190.39010508 291.46217143 -187.76928711 279.76855469 C-185.71925631 270.71297028 -183.39984705 261.7346117 -181.0625 252.75 C-178.47417249 242.79745383 -175.94578633 232.8463923 -173.6875 222.8125 C-170.96623242 210.74778634 -167.99531454 198.74913655 -165 186.75 C-164.65210419 185.35106003 -164.65210419 185.35106003 -164.29718018 183.92385864 C-139.79446078 85.47795093 -139.79446078 85.47795093 -111.5625 52.25 C-110.7271875 51.26128906 -109.891875 50.27257812 -109.03125 49.25390625 C-103.40447314 42.83475101 -97.35192963 37.40960634 -90.5625 32.25 C-89.54929687 31.45980469 -88.53609375 30.66960938 -87.4921875 29.85546875 C-72.79239568 18.67512716 -56.16916067 10.66173149 -38.5625 5.25 C-37.12777344 4.77820313 -37.12777344 4.77820313 -35.6640625 4.296875 C-24.1384952 0.76652105 -11.98378084 0.08347577 0 0 Z " fill="#FDFDFD" transform="translate(763.5625,702.75)"/>
<path d="M0 0 C5.3966851 3.20231314 10.44401911 8.12502609 12.4453125 14.12890625 C13.08787664 22.00031695 12.3153476 27.03073257 7.73828125 33.56640625 C0.47426117 41.684289 -13.032095 45.13650593 -22.96707153 48.80270386 C-52.7105384 59.77897609 -76.51873655 75.26653846 -95.5546875 101.12890625 C-96.39755236 102.23244745 -97.24137452 103.33525786 -98.0859375 104.4375 C-125.45657798 140.53091973 -134.95921538 181.55874302 -144.36279297 225.17211914 C-146.4695122 234.91253624 -148.82662637 244.58429249 -151.20346069 254.26141357 C-153.4605511 263.46143635 -155.62302443 272.66814524 -157.45166016 281.96484375 C-158.45944721 287.03366596 -158.45944721 287.03366596 -159.5546875 288.12890625 C-161.05887489 288.22202514 -162.56740106 288.24636653 -164.07446289 288.24243164 C-165.51584373 288.24231834 -165.51584373 288.24231834 -166.98634338 288.24220276 C-168.0311235 288.23704147 -169.07590363 288.23188019 -170.15234375 288.2265625 C-171.74833656 288.22444008 -171.74833656 288.22444008 -173.37657166 288.22227478 C-176.79013833 288.21665689 -180.2036405 288.20410136 -183.6171875 288.19140625 C-185.92512926 288.18639356 -188.23307205 288.18183025 -190.54101562 288.17773438 C-196.21226176 288.16668165 -201.88347003 288.14992612 -207.5546875 288.12890625 C-207.04435019 283.70178135 -206.51170497 279.43591093 -205.35546875 275.125 C-205.0006543 273.78501953 -205.0006543 273.78501953 -204.63867188 272.41796875 C-204.38408203 271.47695312 -204.12949219 270.5359375 -203.8671875 269.56640625 C-203.32147762 267.51305723 -202.77590864 265.45967076 -202.23046875 263.40625 C-201.95154785 262.3632373 -201.67262695 261.32022461 -201.38525391 260.24560547 C-200.08825259 255.37860995 -198.82229765 250.50362216 -197.5546875 245.62890625 C-197.04963156 243.69266858 -196.54442321 241.75647065 -196.0390625 239.8203125 C-195.09003519 236.18257991 -194.14211098 232.54456329 -193.1953125 228.90625 C-192.73180601 227.12629292 -192.26826357 225.34634521 -191.8046875 223.56640625 C-191.5675 222.65487793 -191.3303125 221.74334961 -191.0859375 220.80419922 C-189.46041639 214.56854268 -187.81651227 208.33793446 -186.1640625 202.109375 C-181.69247016 185.241619 -177.28341715 168.37377031 -173.31738281 151.37841797 C-172.47845509 147.80411322 -171.62271281 144.23405498 -170.765625 140.6640625 C-166.9498879 124.73118945 -163.28564419 108.76258603 -159.73913574 92.76766968 C-159.28711278 90.73604535 -158.83121313 88.70527921 -158.37121582 86.67544556 C-157.72301923 83.80947367 -157.090211 80.94049075 -156.4609375 78.0703125 C-156.26759827 77.22881653 -156.07425903 76.38732056 -155.87506104 75.52032471 C-154.58452695 69.52416975 -153.61842473 63.24013211 -154.5546875 57.12890625 C-156.50245688 54.52321343 -157.27515643 54.18131833 -160.5546875 53.56640625 C-178.87850196 54.45366463 -198.43898956 79.81673753 -210.5546875 92.12890625 C-213.99897015 90.68108832 -215.91599712 88.85196016 -218.3046875 86.00390625 C-218.91828125 85.27945313 -219.531875 84.555 -220.1640625 83.80859375 C-220.62296875 83.25429688 -221.081875 82.7 -221.5546875 82.12890625 C-220.1156791 78.84216887 -218.33458172 76.65163471 -215.80859375 74.1171875 C-215.05924561 73.36373047 -214.30989746 72.61027344 -213.5378418 71.83398438 C-212.73902588 71.04443359 -211.94020996 70.25488281 -211.1171875 69.44140625 C-210.29968018 68.62994141 -209.48217285 67.81847656 -208.63989258 66.98242188 C-202.86323105 61.30004753 -196.99543533 56.05133965 -190.5546875 51.12890625 C-189.61367187 50.35933594 -188.67265625 49.58976563 -187.703125 48.796875 C-168.94607915 33.72000903 -146.14226568 20.52520111 -122.5546875 15.12890625 C-121.87148437 14.93941406 -121.18828125 14.74992188 -120.484375 14.5546875 C-113.7278596 13.06387742 -107.54872261 13.7572615 -101.5546875 17.12890625 C-98.01754637 22.43461794 -99.34175285 28.57923725 -100.48046875 34.5859375 C-100.93107431 36.70693212 -101.39418868 38.82529291 -101.8671875 40.94140625 C-102.12064941 42.10397949 -102.37411133 43.26655273 -102.63525391 44.46435547 C-105.78579134 58.61923146 -109.37321257 72.67289633 -112.9465332 86.72583008 C-113.3035154 88.13332771 -113.3035154 88.13332771 -113.66770935 89.56925964 C-114.11986157 91.34978917 -114.57416818 93.12977337 -115.03089905 94.90913391 C-116.1423987 98.96713809 -116.1423987 98.96713809 -116.5546875 103.12890625 C-115.93722656 102.113125 -115.31976562 101.09734375 -114.68359375 100.05078125 C-109.36752467 91.37936682 -103.80293005 83.16236096 -97.5546875 75.12890625 C-96.38486328 73.57623047 -96.38486328 73.57623047 -95.19140625 71.9921875 C-32.54156909 -11.09597845 -32.54156909 -11.09597845 0 0 Z " fill="#FDFDFD" transform="translate(1876.5546875,872.87109375)"/>
<path d="M0 0 C1.14855469 0.00008057 2.29710937 0.00016113 3.48046875 0.00024414 C22.1268225 0.12591125 22.1268225 0.12591125 28.25 3.1875 C27.58901917 9.75842705 26.19595997 15.98176174 24.5625 22.375 C24.29630859 23.42945313 24.03011719 24.48390625 23.75585938 25.5703125 C21.81593932 33.17479911 19.7016448 40.71820795 17.5012207 48.25073242 C15.58683682 54.85868536 13.88855341 61.50625845 12.25 68.1875 C9.71454118 78.51364172 6.88787379 88.72990457 3.90087891 98.93359375 C3.32454542 100.92935921 2.77545632 102.93294803 2.23046875 104.9375 C-3.68751769 126.69554377 -12.14640637 147.75656764 -26.75 165.1875 C-27.44480469 166.033125 -28.13960937 166.87875 -28.85546875 167.75 C-38.46712621 178.95484658 -49.57683157 187.60091578 -62.75 194.1875 C-63.63945313 194.64253906 -64.52890625 195.09757812 -65.4453125 195.56640625 C-71.23085453 198.10532149 -76.76033182 198.58135741 -83 198.6875 C-83.75700195 198.70619141 -84.51400391 198.72488281 -85.29394531 198.74414062 C-91.81099583 198.66966005 -95.84475572 196.69334158 -100.82421875 192.3984375 C-113.94420021 177.46770799 -111.66781382 156.67470479 -110.56396484 138.04833984 C-106.97250464 95.83588191 -87.56035541 45.88062172 -54.80859375 17.65234375 C-37.97788876 4.50815563 -20.92983496 -0.01364198 0 0 Z " fill="#231E1B" transform="translate(849.75,928.8125)"/>
<path d="M0 0 C2.90157989 2.65568329 5.23903622 5.47807244 7 9 C7.46435608 22.28339823 3.61246057 34.82761419 -0.16577148 47.42944336 C-2.4668121 55.10458145 -4.58129568 62.81516079 -6.625 70.5625 C-8.7448653 78.56025317 -11.04739557 86.38728888 -13.76171875 94.203125 C-15.6060077 99.85816873 -17.10149073 105.59890457 -18.63354492 111.3449707 C-20.40072984 117.92626887 -22.34138731 124.43418206 -24.375 130.9375 C-27.66310135 141.50712068 -30.45265837 152.18630577 -33.15966797 162.91577148 C-34.69584048 168.99741264 -36.28250191 175.04823798 -38.0390625 181.0703125 C-40.02234411 187.93099061 -41.65588255 194.83866782 -43.1875 201.8125 C-43.44724609 202.96169922 -43.70699219 204.11089844 -43.97460938 205.29492188 C-45.93781346 214.15724109 -47.13500072 222.7413525 -47.3125 231.8125 C-47.34988281 233.07707031 -47.38726563 234.34164063 -47.42578125 235.64453125 C-47.27431287 239.05278962 -47.27431287 239.05278962 -45.171875 241.4375 C-43.02997831 243.27138967 -43.02997831 243.27138967 -39.9375 243.1875 C-30.52792081 241.17690615 -22.17883029 233.00526598 -15 227 C-13.99066406 226.1646875 -12.98132812 225.329375 -11.94140625 224.46875 C-4.05453143 217.89973651 3.51403934 211.02038536 11 204 C14.68069887 205.53643852 16.98775204 207.78150945 19.75 210.625 C20.94882813 211.85089844 20.94882813 211.85089844 22.171875 213.1015625 C22.77515625 213.72804688 23.3784375 214.35453125 24 215 C20.7804518 222.50663079 13.1702064 227.97678937 7.0859375 233.1953125 C4.74974499 235.21651276 2.47035149 237.29378839 0.1875 239.375 C-5.06245999 244.10476579 -10.47477321 248.5961566 -16 253 C-17.53140625 254.22396484 -17.53140625 254.22396484 -19.09375 255.47265625 C-37.23242666 269.80376492 -57.08159899 282.77535424 -81.09179688 281.22949219 C-86.4831296 280.58109752 -89.41897095 277.9414894 -92.73046875 273.875 C-102.46181389 260.19101824 -98.93675937 244.61321357 -96.51635742 229.03417969 C-94.65870361 218.11837752 -92.24619173 207.29937458 -89.8125 196.5 C-89.66581879 195.84879181 -89.51913757 195.19758362 -89.36801147 194.52664185 C-87.01596083 184.12024274 -84.48363696 173.7664264 -81.8125 163.4375 C-81.3316394 161.57738281 -81.3316394 161.57738281 -80.84106445 159.6796875 C-78.68129222 151.41717993 -76.36587136 143.20551626 -74 135 C-73.50112846 133.23609378 -73.00359737 131.47180753 -72.5078125 129.70703125 C-69.88438559 120.40629834 -67.13946279 111.1632882 -64.18237305 101.96313477 C-62.23184802 95.85072251 -60.50530032 89.69294364 -58.82836914 83.50073242 C-57.49960334 78.64894306 -56.00581119 73.88316752 -54.375 69.125 C-50.78761284 58.49863867 -48.4598426 49.28328796 -49 38 C-52.27951103 36.36024449 -55.45680428 36.4955249 -59 37 C-76.45859961 42.91572383 -91.3152153 61.08643161 -104 74 C-108.10110762 72.59601721 -110.98089159 70.62912962 -114.3125 67.875 C-115.19550781 67.15054688 -116.07851562 66.42609375 -116.98828125 65.6796875 C-117.65214844 65.12539063 -118.31601563 64.57109375 -119 64 C-117.67289545 61.08825141 -116.20313507 58.91075556 -114.0234375 56.57421875 C-113.43925049 55.94604248 -112.85506348 55.31786621 -112.25317383 54.6706543 C-111.32347778 53.68899292 -111.32347778 53.68899292 -110.375 52.6875 C-109.73908936 52.01178955 -109.10317871 51.3360791 -108.44799805 50.63989258 C-104.77398335 46.76986791 -101.06314547 43.05124205 -96.94921875 39.64453125 C-95.49476596 38.41742779 -94.08743141 37.13407035 -92.70703125 35.82421875 C-75.27131095 19.28534336 -53.58300705 4.68354161 -30 -1 C-28.865625 -1.4125 -27.73125 -1.825 -26.5625 -2.25 C-18.13002331 -4.02525825 -7.67577611 -4.52996623 0 0 Z " fill="#FDFDFD" transform="translate(1386,889)"/>
<path d="M0 0 C7.20074064 4.37692078 13.29348862 9.56514751 15.77026367 17.89819336 C17.86881096 28.15516558 16.9596429 39.64594451 12.1875 48.9375 C11.76339844 49.77410156 11.33929687 50.61070312 10.90234375 51.47265625 C7.22034621 58.10845684 2.42253708 63.4865851 -2.8125 68.9375 C-3.75222656 69.95457031 -3.75222656 69.95457031 -4.7109375 70.9921875 C-24.00070571 91.25865284 -52.20325825 106.42734876 -77.8125 116.9375 C-78.4725 116.9375 -79.1325 116.9375 -79.8125 116.9375 C-77.00322132 96.09967951 -71.50406218 75.48023822 -63.8125 55.9375 C-63.45397949 55.01727051 -63.09545898 54.09704102 -62.72607422 53.14892578 C-54.5588187 32.44386838 -44.08122443 12.87110214 -23.8125 1.9375 C-22.69875 1.298125 -21.585 0.65875 -20.4375 0 C-13.67451763 -1.98225345 -6.77518751 -1.88816701 0 0 Z " fill="#241F1C" transform="translate(1566.8125,915.0625)"/>
<path d="M0 0 C5.22715334 3.33905347 8.29321721 8.60223255 10.1953125 14.40234375 C11.48541848 25.27997416 9.6586113 34.33531211 3.140625 43.1953125 C-4.12094682 51.70064836 -11.42774097 56.69977741 -22.7421875 57.77734375 C-28.73299176 57.60319246 -33.18709406 54.80425807 -37.6171875 50.96484375 C-43.72537933 43.80953332 -45.34664438 37.39346785 -45.171875 28.1015625 C-44.12179356 17.52255057 -38.67646975 9.33108386 -30.8046875 2.40234375 C-21.37090152 -3.76149908 -10.29107775 -4.64918464 0 0 Z " fill="#FCFCFC" transform="translate(1421.8046875,750.59765625)"/>
</svg>
