<?xml version="1.0" encoding="UTF-8"?>
<svg version="1.1" xmlns="http://www.w3.org/2000/svg" width="192" height="192">
<path d="M0 0 C63.36 0 126.72 0 192 0 C192 63.36 192 126.72 192 192 C128.64 192 65.28 192 0 192 C0 128.64 0 65.28 0 0 Z " fill="#1C1917" transform="translate(0,0)"/>
<path d="M0 0 C2.3968665 2.3968665 2.28281133 3.07028314 2.4140625 6.3515625 C2.45273438 7.20234375 2.49140625 8.053125 2.53125 8.9296875 C2.5621875 9.81914063 2.593125 10.70859375 2.625 11.625 C2.66367188 12.5221875 2.70234375 13.419375 2.7421875 14.34375 C2.83659357 16.5622927 2.92216748 18.78082403 3 21 C4.65 20.67 6.3 20.34 8 20 C7.67 20.66 7.34 21.32 7 22 C4.6859378 22.73075648 2.35171131 23.40138258 0 24 C-0.33 23.34 -0.66 22.68 -1 22 C-1.886875 22.33 -2.77375 22.66 -3.6875 23 C-6.73949862 23.92135807 -8.8545268 24.34949702 -12 24 C-14 22 -14 22 -14.125 19.125 C-12.84809577 15.5780438 -12.33059871 15.27494051 -9.125 13.625 C-6.4255676 12.39979636 -5.02224692 12 -2 12 C-2.33 8.7 -2.66 5.4 -3 2 C-5.40877257 2.11341534 -5.40877257 2.11341534 -8 3 C-9.84434349 5.46115547 -9.84434349 5.46115547 -11 8 C-11.99 7.67 -12.98 7.34 -14 7 C-13.70049983 4.1048317 -13.19065168 3.16176506 -10.9375 1.25 C-6.96655934 -0.43976198 -4.30262044 -0.35267381 0 0 Z " fill="#BDBCBC" transform="translate(85,94)"/>
<path d="M0 0 C0.7734375 -0.01675781 1.546875 -0.03351563 2.34375 -0.05078125 C4.5 0.3125 4.5 0.3125 6.28125 1.51953125 C7.5 3.3125 7.5 3.3125 7.5 8.3125 C2.55 8.3125 -2.4 8.3125 -7.5 8.3125 C-7.21125 9.92125 -6.9225 11.53 -6.625 13.1875 C-6.38136719 14.54488281 -6.38136719 14.54488281 -6.1328125 15.9296875 C-5.66955297 18.47755988 -5.66955297 18.47755988 -3.5 20.3125 C-0.60116917 20.55589551 -0.60116917 20.55589551 2.625 20.4375 C4.26855469 20.41042969 4.26855469 20.41042969 5.9453125 20.3828125 C7.20988281 20.34800781 7.20988281 20.34800781 8.5 20.3125 C5.47354194 23.47652434 3.57970923 24.49557153 -0.8125 24.6875 C-4.64506165 24.66281361 -5.32418398 24.45168768 -8.5 21.9375 C-12.09524017 17.21874728 -12.17821344 13.13230453 -11.5 7.3125 C-8.63852715 2.57626907 -5.61216563 0.02806083 0 0 Z " fill="#E2E2E1" transform="translate(148.5,93.6875)"/>
<path d="M0 0 C-0.9075 0.391875 -1.815 0.78375 -2.75 1.1875 C-6.73155182 3.40798082 -8.96930008 5.93860016 -11 10 C-11.93979282 21.3171135 -11.93979282 21.3171135 -7 31 C-2.7567657 34.66061404 1.38151283 35.60298404 6.921875 35.3203125 C9.91118665 34.85955394 11.70208973 33.95998229 14 32 C15.73490246 29.41556677 15.73490246 29.41556677 17 27 C17.33 27 17.66 27 18 27 C18 29.31 18 31.62 18 34 C11.36782737 37.79989222 5.48082684 37.76090696 -2 37 C-8.88169695 35.1056604 -12.78059936 30.80468681 -16.3125 24.75 C-17.80165935 18.79336259 -18.07766063 13.15889667 -15 7.6875 C-11.46298844 2.72963764 -6.30989775 -2.23446268 0 0 Z " fill="#E9E9E8" transform="translate(31,81)"/>
<path d="M0 0 C0.33 14.19 0.66 28.38 1 43 C-0.98 43 -2.96 43 -5 43 C-4.67 30.13 -4.34 17.26 -4 4 C-5.65 4 -7.3 4 -9 4 C-6.43425105 1.43425105 -3.68548192 0 0 0 Z " fill="#D7D7D7" transform="translate(62,74)"/>
<path d="M0 0 C3.63 0 7.26 0 11 0 C10.01 0.66 9.02 1.32 8 2 C9.49170266 6.9723422 11.60457417 11.41845739 14 16 C16.03529587 13.96470413 16.6384272 12.76582618 17.625 10.125 C17.88539062 9.44695312 18.14578125 8.76890625 18.4140625 8.0703125 C19.18154831 5.71713449 19.18154831 5.71713449 19 2 C18.01 1.34 17.02 0.68 16 0 C19.3 0 22.6 0 26 0 C25.42765625 0.63292969 24.8553125 1.26585938 24.265625 1.91796875 C21.40206465 5.81339826 19.638203 9.8822163 17.75 14.3125 C17.38648437 15.14845703 17.02296875 15.98441406 16.6484375 16.84570312 C15.75876659 18.89428746 14.87620804 20.94563013 14 23 C13.34 23 12.68 23 12 23 C11.70754395 22.37432129 11.41508789 21.74864258 11.11376953 21.10400391 C9.78864014 18.27555438 8.45690955 15.45026267 7.125 12.625 C6.66480469 11.64015625 6.20460938 10.6553125 5.73046875 9.640625 C5.06337891 8.22910156 5.06337891 8.22910156 4.3828125 6.7890625 C3.97434082 5.91975098 3.56586914 5.05043945 3.14501953 4.15478516 C2.06636492 1.87128896 2.06636492 1.87128896 0 0 Z " fill="#DFDFDE" transform="translate(92,94)"/>
<path d="M0 0 C2.3968665 2.3968665 2.28281133 3.07028314 2.4140625 6.3515625 C2.45273438 7.20234375 2.49140625 8.053125 2.53125 8.9296875 C2.5621875 9.81914063 2.593125 10.70859375 2.625 11.625 C2.66367188 12.5221875 2.70234375 13.419375 2.7421875 14.34375 C2.83659357 16.5622927 2.92216748 18.78082403 3 21 C4.65 20.67 6.3 20.34 8 20 C7.67 20.66 7.34 21.32 7 22 C4.6859378 22.73075648 2.35171131 23.40138258 0 24 C-2.20949832 19.58970217 -2.2370648 15.51059676 -2.125 10.6875 C-2.11597656 9.94693359 -2.10695313 9.20636719 -2.09765625 8.44335938 C-2.07424213 6.62876533 -2.03837615 4.81433929 -2 3 C-3.65 2.67 -5.3 2.34 -7 2 C-8.98 4.97 -8.98 4.97 -11 8 C-11.99 7.67 -12.98 7.34 -14 7 C-13.70049983 4.1048317 -13.19065168 3.16176506 -10.9375 1.25 C-6.96655934 -0.43976198 -4.30262044 -0.35267381 0 0 Z " fill="#ECECEB" transform="translate(85,94)"/>
<path d="M0 0 C0 0.66 0 1.32 0 2 C0.66 2.33 1.32 2.66 2 3 C1.67 3.33 1.34 3.66 1 4 C0.89997545 6.65653443 0.86122537 9.28129272 0.875 11.9375 C0.87113281 12.67935547 0.86726562 13.42121094 0.86328125 14.18554688 C0.78260332 18.22322878 0.78260332 18.22322878 2 22 C-0.31 22 -2.62 22 -5 22 C-4.67 15.4 -4.34 8.8 -4 2 C-5.32 1.67 -6.64 1.34 -8 1 C-4.93251126 -0.86240388 -3.40254489 -1.2151946 0 0 Z " fill="#DBDADA" transform="translate(169,95)"/>
<path d="M0 0 C0.33 7.59 0.66 15.18 1 23 C-1.31 23 -3.62 23 -6 23 C-5.34 22.67 -4.68 22.34 -4 22 C-4.11358476 19.04081802 -4.24033086 16.08323217 -4.375 13.125 C-4.42140625 11.86236328 -4.42140625 11.86236328 -4.46875 10.57421875 C-4.50742188 9.76855469 -4.54609375 8.96289062 -4.5859375 8.1328125 C-4.6173584 7.38918457 -4.6487793 6.64555664 -4.68115234 5.87939453 C-4.85419551 3.75989026 -4.85419551 3.75989026 -7 2 C-4.35261084 0.5393715 -3.10551666 0 0 0 Z " fill="#D6D6D5" transform="translate(129,94)"/>
<path d="M0 0 C0.33 0 0.66 0 1 0 C1 3.96 1 7.92 1 12 C-2.96 12 -6.92 12 -11 12 C-10.29875 11.505 -9.5975 11.01 -8.875 10.5 C-5.76915639 7.79926643 -3.60065264 4.95143724 -1.234375 1.609375 C-0.82703125 1.07828125 -0.4196875 0.5471875 0 0 Z " fill="#000000" transform="translate(191,180)"/>
<path d="M0 0 C0.495 0.70125 0.99 1.4025 1.5 2.125 C4.20073357 5.23084361 7.04856276 7.39934736 10.390625 9.765625 C10.92171875 10.17296875 11.4528125 10.5803125 12 11 C12 11.33 12 11.66 12 12 C8.04 12 4.08 12 0 12 C0 8.04 0 4.08 0 0 Z " fill="#000000" transform="translate(0,180)"/>
<path d="M0 0 C3.96 0 7.92 0 12 0 C12 3.96 12 7.92 12 12 C11.505 11.29875 11.01 10.5975 10.5 9.875 C7.79926643 6.76915639 4.95143724 4.60065264 1.609375 2.234375 C1.07828125 1.82703125 0.5471875 1.4196875 0 1 C0 0.67 0 0.34 0 0 Z " fill="#000000" transform="translate(180,0)"/>
<path d="M0 0 C3.96 0 7.92 0 12 0 C11.29875 0.495 10.5975 0.99 9.875 1.5 C6.76915639 4.20073357 4.60065264 7.04856276 2.234375 10.390625 C1.82703125 10.92171875 1.4196875 11.4528125 1 12 C0.67 12 0.34 12 0 12 C0 8.04 0 4.08 0 0 Z " fill="#000000" transform="translate(0,0)"/>
<path d="M0 0 C0.33 0 0.66 0 1 0 C1 2.31 1 4.62 1 7 C-5.61264999 10.80453835 -11.53882204 10.67435907 -19 10 C-21.67851212 9.26139286 -23.57507729 8.38567012 -26 7 C-26 6.67 -26 6.34 -26 6 C-21.48124628 5.74895813 -21.48124628 5.74895813 -19.10546875 6.98828125 C-15.51570194 8.71323413 -11.89608249 8.44606311 -8 8 C-3.72459791 6.23407305 -2.16525418 4.00572023 0 0 Z " fill="#CFCFCE" transform="translate(48,108)"/>
<path d="M0 0 C0.1875 2.875 0.1875 2.875 0 6 C-3.22791555 8.1519437 -4.28400809 8.20086443 -8 8 C-8.33 6.68 -8.66 5.36 -9 4 C-3.375 0 -3.375 0 0 0 Z " fill="#282523" transform="translate(84,107)"/>
<path d="M0 0 C2 2 2 2 2 6 C-1.63 6 -5.26 6 -9 6 C-6.64191996 0.1047999 -5.98571319 -0.44892849 0 0 Z " fill="#272422" transform="translate(150,95)"/>
<path d="M0 0 C3.3 0 6.6 0 10 0 C9.40703125 0.67417969 8.8140625 1.34835938 8.203125 2.04296875 C5.78927414 5.28283595 4.25034192 8.59609182 2.75 12.3125 C2.481875 12.95767578 2.21375 13.60285156 1.9375 14.26757812 C1.28438519 15.84205132 0.64115596 17.42061916 0 19 C-0.66 18.67 -1.32 18.34 -2 18 C-1.6390625 17.18015625 -1.278125 16.3603125 -0.90625 15.515625 C-0.4421875 14.43796875 0.021875 13.3603125 0.5 12.25 C0.9640625 11.18265625 1.428125 10.1153125 1.90625 9.015625 C3.22730717 5.90792284 3.22730717 5.90792284 3 2 C2.01 1.34 1.02 0.68 0 0 Z " fill="#B9B8B7" transform="translate(108,94)"/>
<path d="M0 0 C-0.9075 0.391875 -1.815 0.78375 -2.75 1.1875 C-6.17294163 3.09644822 -7.74031199 4.85257742 -10 8 C-10.66 8.66 -11.32 9.32 -12 10 C-12.99 10 -13.98 10 -15 10 C-13.38356501 4.70984913 -10.48297319 2.58007385 -5.9375 -0.3125 C-3.57043902 -1.15242486 -2.33106248 -0.83252231 0 0 Z " fill="#D8D8D8" transform="translate(31,81)"/>
<path d="M0 0 C9.63343558 -0.45552147 9.63343558 -0.45552147 14.1875 1.0625 C16 3 16 3 16.3125 6.6875 C16.209375 7.780625 16.10625 8.87375 16 10 C15.1646875 8.8553125 15.1646875 8.8553125 14.3125 7.6875 C10.08180788 2.77074969 6.39282395 1.62674745 0 1 C0 0.67 0 0.34 0 0 Z " fill="#C6C5C5" transform="translate(32,79)"/>
<path d="M0 0 C1.43655854 -0.08131463 2.8744483 -0.13933559 4.3125 -0.1875 C5.51326172 -0.23970703 5.51326172 -0.23970703 6.73828125 -0.29296875 C9 0 9 0 10.78125 1.34375 C12.44546615 3.60537707 12.22189312 5.26331821 12 8 C10.68 8 9.36 8 8 8 C7.34 6.02 6.68 4.04 6 2 C3.69 2 1.38 2 -1 2 C-0.67 1.34 -0.34 0.68 0 0 Z " fill="#E2E2E2" transform="translate(144,94)"/>
<path d="M0 0 C0.556875 0.226875 1.11375 0.45375 1.6875 0.6875 C1.089375 0.914375 0.49125 1.14125 -0.125 1.375 C-2.87601888 3.02561133 -3.83734637 4.8847081 -5.3125 7.6875 C-6.3025 7.3575 -7.2925 7.0275 -8.3125 6.6875 C-8.125 4.875 -8.125 4.875 -7.3125 2.6875 C-3.3125 -0.44763514 -3.3125 -0.44763514 0 0 Z " fill="#C8C7C7" transform="translate(79.3125,94.3125)"/>
<path d="M0 0 C-4.56327794 3.53286034 -8.49633208 3.32374517 -14 3 C-12.33607581 1.00971125 -11.35962232 0.08974532 -8.80859375 -0.546875 C-8.02613281 -0.61390625 -7.24367187 -0.6809375 -6.4375 -0.75 C-5.65246094 -0.82734375 -4.86742187 -0.9046875 -4.05859375 -0.984375 C-2 -1 -2 -1 0 0 Z " fill="#A7A6A5" transform="translate(157,115)"/>
<path d="M0 0 C2.625 -0.1875 2.625 -0.1875 5 0 C5.33 1.32 5.66 2.64 6 4 C3.36 3.67 0.72 3.34 -2 3 C-1.34 2.01 -0.68 1.02 0 0 Z " fill="#D6D6D5" transform="translate(173,94)"/>
<path d="M0 0 C2.475 0.495 2.475 0.495 5 1 C4.67 2.32 4.34 3.64 4 5 C2.68 4.67 1.36 4.34 0 4 C0 2.68 0 1.36 0 0 Z " fill="#D8D8D7" transform="translate(124,82)"/>
</svg>
